<?xml version="1.0" standalone="no"?>
<!DOCTYPE svg PUBLIC "-//W3C//DTD SVG 20010904//EN"
 "http://www.w3.org/TR/2001/REC-SVG-20010904/DTD/svg10.dtd">
<svg version="1.0" xmlns="http://www.w3.org/2000/svg"
 width="64.000000pt" height="64.000000pt" viewBox="0 0 64.000000 64.000000"
 preserveAspectRatio="xMidYMid meet">

<g transform="translate(0.000000,64.000000) scale(0.100000,-0.100000)"
fill="#000000" stroke="none">
<path d="M165 453 c-82 -74 -152 -139 -153 -144 -2 -5 17 -9 42 -9 l46 0 0
-125 0 -125 80 0 80 0 0 95 0 95 60 0 60 0 0 -95 0 -95 80 0 80 0 0 125 0 125
46 0 c25 0 44 4 42 9 -3 10 -296 275 -307 278 -3 1 -73 -59 -156 -134z"/>
</g>
</svg>
