<?xml version="1.0" standalone="no"?>
<!DOCTYPE svg PUBLIC "-//W3C//DTD SVG 20010904//EN"
 "http://www.w3.org/TR/2001/REC-SVG-20010904/DTD/svg10.dtd">
<svg version="1.0" xmlns="http://www.w3.org/2000/svg"
 width="100.000000pt" height="100.000000pt" viewBox="0 0 100.000000 100.000000"
 preserveAspectRatio="xMidYMid meet">

<g transform="translate(0.000000,100.000000) scale(0.100000,-0.100000)"
fill="#000000" stroke="none">
<path d="M632 883 c-23 -9 -142 -175 -142 -199 0 -40 12 -55 98 -120 121 -91
135 -89 228 34 91 121 89 135 -34 228 -81 61 -111 73 -150 57z"/>
<path d="M159 821 c-28 -29 -29 -32 -29 -136 0 -104 1 -107 29 -136 29 -28 32
-29 136 -29 104 0 107 1 136 29 28 29 29 32 29 136 0 104 -1 107 -29 136 -29
28 -32 29 -136 29 -104 0 -107 -1 -136 -29z"/>
<path d="M159 441 c-28 -29 -29 -32 -29 -136 0 -104 1 -107 29 -136 29 -28 32
-29 136 -29 104 0 107 1 136 29 28 29 29 32 29 136 0 104 -1 107 -29 136 -29
28 -32 29 -136 29 -104 0 -107 -1 -136 -29z"/>
<path d="M529 441 c-28 -29 -29 -32 -29 -136 0 -104 1 -107 29 -136 29 -28 32
-29 136 -29 104 0 107 1 136 29 28 29 29 32 29 136 0 104 -1 107 -29 136 -29
28 -32 29 -136 29 -104 0 -107 -1 -136 -29z"/>
</g>
</svg>
